<svg xmlns="http://www.w3.org/2000/svg" width="100" height="100" viewBox="0 0 100 100">
  <defs>
    <pattern id="autumn-pattern" x="0" y="0" width="60" height="60" patternUnits="userSpaceOnUse">
      <!-- 枫叶 -->
      <g opacity="0.3">
        <path d="M30 20 Q25 15 20 20 Q25 25 30 30 Q35 25 40 20 Q35 15 30 20" fill="#CD853F"/>
        <path d="M30 30 Q25 35 20 40 Q25 45 30 40 Q35 45 40 40 Q35 35 30 30" fill="#D2691E"/>
      </g>
      <!-- 银杏叶 -->
      <g opacity="0.4">
        <path d="M15 45 Q20 40 25 45 Q20 50 15 45" fill="#FFD700"/>
        <path d="M45 15 Q50 10 55 15 Q50 20 45 15" fill="#FFA500"/>
      </g>
      <!-- 小点装饰 -->
      <circle cx="10" cy="10" r="1" fill="#8B4513" opacity="0.2"/>
      <circle cx="50" cy="50" r="1" fill="#8B4513" opacity="0.2"/>
    </pattern>
  </defs>
  <rect width="100" height="100" fill="url(#autumn-pattern)"/>
</svg> 