<svg width="800" height="600" viewBox="0 0 800 600" xmlns="http://www.w3.org/2000/svg">
  <defs>
    <radialGradient id="bg" cx="50%" cy="50%">
      <stop offset="0%" style="stop-color:#001122;stop-opacity:1" />
      <stop offset="100%" style="stop-color:#000000;stop-opacity:1" />
    </radialGradient>
    <radialGradient id="firework1" cx="50%" cy="50%">
      <stop offset="0%" style="stop-color:#ff6b6b;stop-opacity:1" />
      <stop offset="100%" style="stop-color:#ff6b6b;stop-opacity:0" />
    </radialGradient>
    <radialGradient id="firework2" cx="50%" cy="50%">
      <stop offset="0%" style="stop-color:#ffd700;stop-opacity:1" />
      <stop offset="100%" style="stop-color:#ffd700;stop-opacity:0" />
    </radialGradient>
  </defs>
  
  <!-- 夜空背景 -->
  <rect width="800" height="600" fill="url(#bg)"/>
  
  <!-- 星星 -->
  <circle cx="100" cy="80" r="1" fill="#ffffff" opacity="0.7"/>
  <circle cx="200" cy="50" r="1" fill="#ffffff" opacity="0.8"/>
  <circle cx="300" cy="70" r="1" fill="#ffffff" opacity="0.6"/>
  <circle cx="500" cy="60" r="1" fill="#ffffff" opacity="0.9"/>
  <circle cx="600" cy="90" r="1" fill="#ffffff" opacity="0.7"/>
  <circle cx="700" cy="45" r="1" fill="#ffffff" opacity="0.8"/>
  
  <!-- 主花火 -->
  <circle cx="400" cy="200" r="120" fill="url(#firework1)" opacity="0.8"/>
  <circle cx="400" cy="200" r="80" fill="url(#firework1)" opacity="0.6"/>
  <circle cx="400" cy="200" r="40" fill="#ff6b6b" opacity="1"/>
  
  <!-- 副花火 -->
  <circle cx="250" cy="150" r="60" fill="url(#firework2)" opacity="0.6"/>
  <circle cx="250" cy="150" r="30" fill="#ffd700" opacity="1"/>
  
  <circle cx="550" cy="180" r="80" fill="url(#firework1)" opacity="0.4"/>
  <circle cx="550" cy="180" r="40" fill="#ff6b6b" opacity="0.8"/>
  
  <!-- 花火光芒 -->
  <g stroke="#ff6b6b" stroke-width="2" opacity="0.8">
    <line x1="400" y1="80" x2="400" y2="320" />
    <line x1="280" y1="200" x2="520" y2="200" />
    <line x1="330" y1="130" x2="470" y2="270" />
    <line x1="470" y1="130" x2="330" y2="270" />
  </g>
  
  <!-- 地面轮廓 -->
  <path d="M0,550 Q200,530 400,540 Q600,550 800,535 L800,600 L0,600 Z" fill="#1a1a2e" opacity="0.8"/>
  
  <!-- 标题文字 -->
  <text x="400" y="480" text-anchor="middle" fill="#ffffff" font-family="Arial, sans-serif" font-size="24" font-weight="bold">
    江户川区花火大会
  </text>
  <text x="400" y="510" text-anchor="middle" fill="#cccccc" font-family="Arial, sans-serif" font-size="18">
    东京都江户川区
  </text>
</svg>